<?xml version="1.0" standalone="no"?>
<!DOCTYPE svg PUBLIC "-//W3C//DTD SVG 20010904//EN"
 "http://www.w3.org/TR/2001/REC-SVG-20010904/DTD/svg10.dtd">
<svg version="1.0" xmlns="http://www.w3.org/2000/svg"
 width="180.000000pt" height="180.000000pt" viewBox="0 0 180.000000 180.000000"
 preserveAspectRatio="xMidYMid meet">
<metadata>
Created by potrace 1.14, written by Peter Selinger 2001-2017
</metadata>
<g transform="translate(0.000000,180.000000) scale(0.100000,-0.100000)"
fill="#000000" stroke="none">
<path d="M705 1578 c-94 -34 -177 -103 -251 -210 -28 -40 -26 -68 4 -68 20 0
44 23 86 87 39 59 145 133 189 133 18 0 42 -36 55 -82 11 -40 -2 -142 -22
-173 -7 -11 -17 -36 -21 -55 -4 -19 -14 -42 -21 -51 -8 -9 -29 -60 -48 -115
-18 -54 -47 -129 -65 -167 -17 -37 -45 -96 -61 -131 -17 -36 -30 -70 -30 -75
0 -12 -25 -71 -66 -157 -13 -28 -24 -56 -24 -62 0 -15 53 -15 67 -1 7 7 55
114 108 239 78 183 105 236 137 269 22 22 46 41 53 41 7 0 29 -23 49 -50 45
-62 74 -75 139 -63 26 5 47 8 47 7 0 -2 -7 -20 -16 -41 -9 -21 -22 -51 -29
-68 -45 -106 -59 -259 -29 -317 37 -71 148 -91 240 -42 97 51 139 100 178 204
30 78 31 199 3 227 -24 24 -62 3 -87 -48 -26 -55 -25 -67 4 -75 34 -8 38 -38
12 -92 -32 -67 -85 -120 -145 -142 -74 -29 -107 -26 -125 8 -19 37 -21 57 -12
127 8 63 122 365 137 365 5 0 9 11 9 23 0 13 17 59 38 103 21 43 47 104 57
134 10 30 28 78 41 105 65 145 74 170 70 182 -15 39 -83 -8 -106 -75 -9 -26
-24 -63 -33 -82 -17 -37 -39 -96 -61 -167 -8 -23 -23 -54 -35 -69 -11 -15 -21
-35 -21 -45 0 -10 -4 -21 -10 -24 -5 -3 -16 -27 -23 -53 -11 -38 -22 -51 -52
-69 -30 -16 -44 -19 -63 -12 -27 10 -69 54 -77 80 -8 25 -50 42 -84 36 -38 -8
-39 -2 -5 88 87 234 93 279 50 363 -15 29 -32 55 -39 57 -36 11 -86 12 -112 3z"/>
</g>
</svg>
